<svg width="413" height="135" viewBox="0 0 413 135" fill="none" xmlns="http://www.w3.org/2000/svg">
<g clip-path="url(#clip0_9_1298)">
<g opacity="0.921569">
<path d="M47.25 0H54.75L55.25 0.5H57.75C58 1.08333 58.6667 1.25 59.75 1L60.25 1.5H61.25L61.75 2C62.5833 1.83333 63.0833 2 63.25 2.5H64.25L65.25 3.5H65.75C65.8333 3.91667 66.1667 4.08333 66.75 4L68.25 5.5H68.75L70.5 7.25V7.75L72 9.25V9.75L73 10.75V11.25L74 12.75V13.75L74.5 14.25C74.3333 15.0833 74.5 15.5833 75 15.75V18.25L75.5 18.75V22.25L75 22.75V25.25L74.5 25.75V26.75C74 26.9167 73.8333 27.4167 74 28.25L73.5 28.75V29.25L73 29.75V30.25C72.5833 30.3333 72.4167 30.6667 72.5 31.25L71.5 32.25V32.75L69.5 34.75V35.25L67.25 37.5H66.75L64.25 39.5H60.25C60.1667 39.0833 59.8333 38.9167 59.25 39L57.5 37.25C57.6667 36.4167 57.5 35.9167 57 35.75V34.25C57.4167 34.1667 57.5833 33.8333 57.5 33.25L58.5 32.25V31.75L61 29.25V28.75L62 27.75V27.25L62.5 26.75V26.25L63 25.75V25.25L64 23.75C63.75 22.6667 63.9167 22 64.5 21.75V19.25L64 18.75V17.25L63.5 16.75V16.25C63.0833 16.1667 62.9167 15.8333 63 15.25L60.25 12.5H59.75L59.25 12H58.75L57.25 11H56.25L55.75 10.5H53.75L53.25 10H48.75L48.25 10.5H45.25L44.75 11H43.25C43 11.5833 42.3333 11.75 41.25 11.5L40.75 12H39.75C39.5833 12.5 39.0833 12.6667 38.25 12.5L37.75 13H37.25L36.75 13.5H36.25L35.75 14H35.25C35.1667 14.4167 34.8333 14.5833 34.25 14.5L33.25 15.5H32.75L31.75 16.5H31.25L30.25 17.5H29.75L25.5 21.75V22.25L24.5 23.25V23.75L24 24.25V24.75L23 26.25C23.1667 27.0833 23 27.5833 22.5 27.75V29.25L22 29.75V32.25L22.5 32.75V34.75C23 34.9167 23.1667 35.4167 23 36.25L24 37.25V37.75L29.25 43H29.75L32.25 45H32.75L33.75 46H34.25L34.75 46.5H35.25C35.3333 46.9167 35.6667 47.0833 36.25 47L37.25 48H37.75L38.25 48.5H38.75C38.8333 48.9167 39.1667 49.0833 39.75 49L40.75 50H41.25L41.75 50.5H42.25C42.3333 50.9167 42.6667 51.0833 43.25 51L44.25 52H44.75L45.25 52.5H45.75C45.8333 52.9167 46.1667 53.0833 46.75 53L47.75 54H48.25C48.3333 54.4167 48.6667 54.5833 49.25 54.5L50.25 55.5H50.75L51.75 56.5H52.25L53.25 57.5H53.75L55.25 59H55.75L62 65.25V65.75L63.5 67.25V67.75L64.5 68.75V69.25L65 69.75V70.25L66 71.75V72.75L66.5 73.25V75.25L67 75.75V84.25L66.5 84.75V86.25L66 86.75V87.75L65.5 88.25V89.25L65 89.75V90.75C64.5833 90.8333 64.4167 91.1667 64.5 91.75L63.5 92.75V93.25C63.0833 93.3333 62.9167 93.6667 63 94.25L62 95.25V95.75L59.5 98.25V98.75L58.25 100H57.5V101H56.75L54.75 103H54.25L53.25 104H52.75L50.25 106H49.75L49.25 106.5H48.75L47.25 107.5H46.25L44.75 108.5H43.75L43.25 109H42.25L41.75 109.5H40.75L40.25 110C39.4167 109.833 38.9167 110 38.75 110.5H36.75L36.25 111H33.25L32.75 111.5H23.25L22.75 111H20.25L19.75 110.5H17.75L17.25 110H16.25L15.75 109.5H14.75L14.25 109H13.25C13.1667 108.583 12.8333 108.417 12.25 108.5L11.25 107.5H10.75C10.6667 107.083 10.3333 106.917 9.75 107L8.75 106H8.25L4 101.75V101.25L3 100.25V99.75L2 98.25V97.75C1.58333 97.6667 1.41667 97.3333 1.5 96.75L1 96.25C1.25 95.1667 1.08333 94.5 0.5 94.25V90.75C0 90.5833 -0.166667 90.0833 0 89.25L0.5 88.75V85.75C1.08333 85.5 1.25 84.8333 1 83.75L1.5 83.25V82.75L2.5 81.25V80.75L3.5 79.25V78.75L5 77.25V76.75L8.25 73.5H8.75L9.75 72.5H10.75L11.25 72H15.25C15.3333 72.4167 15.6667 72.5833 16.25 72.5L17.5 73.75C17.4167 74.3333 17.5833 74.6667 18 74.75V77.75C17.5833 77.8333 17.4167 78.1667 17.5 78.75L14.5 81.75V82.25L13 83.75V84.25L12 85.75V87.25L11.5 87.75V90.75L12 91.25V92.25L12.5 92.75V93.25C12.9167 93.3333 13.0833 93.6667 13 94.25L14 95.25V95.75L15.25 97H15.75L16.75 98H17.25L17.75 98.5H18.25L19.75 99.5H20.75L21.25 100C22.3333 99.75 23 99.9167 23.25 100.5H26.75L27.25 101H29.75L30.25 100.5H33.75L34.25 100H36.25L36.75 99.5C37.5833 99.6667 38.0833 99.5 38.25 99H39.75C39.9167 98.5 40.4167 98.3333 41.25 98.5L41.75 98H42.25C42.3333 97.5833 42.6667 97.4167 43.25 97.5L44.25 96.5H44.75C44.8333 96.0833 45.1667 95.9167 45.75 96L46.75 95H47.25L52 90.25V89.75L53 88.75V88.25L53.5 87.75V87.25L54.5 85.75C54.3333 84.9167 54.5 84.4167 55 84.25V82.25L55.5 81.75V79.75L55 79.25V77.25L54.5 76.75V75.75L54 75.25V74.75C53.5833 74.6667 53.4167 74.3333 53.5 73.75L52 72.25V71.75L48.25 68H47.75L46.25 66.5H45.75L44.25 65H43.75C43.6667 64.5833 43.3333 64.4167 42.75 64.5L40.25 62.5H39.75C39.6667 62.0833 39.3333 61.9167 38.75 62L37.75 61H37.25C37.1667 60.5833 36.8333 60.4167 36.25 60.5L35.25 59.5H34.75L34.25 59H33.75C33.6667 58.5833 33.3333 58.4167 32.75 58.5L31.75 57.5H31.25L30.75 57H30.25C30.1667 56.5833 29.8333 56.4167 29.25 56.5L28.25 55.5H27.75C27.6667 55.0833 27.3333 54.9167 26.75 55L25.75 54H25.25L24.25 53H23.75L22.25 51.5H21.75L20.25 50H19.75L15.5 45.75V45.25L14 43.75V43.25L13 42.25V41.75L12 40.25V39.25C11.5 39.0833 11.3333 38.5833 11.5 37.75L11 37.25V35.25L10.5 34.75V28.75L11 28.25V26.25L11.5 25.75V24.75L12.5 23.25V22.25C12.9167 22.1667 13.0833 21.8333 13 21.25L14 20.25V19.75C14.4167 19.6667 14.5833 19.3333 14.5 18.75L15.5 17.75V17.25L17 15.75V15.25L21.75 10.5H22.25L24.25 8.5H24.75C24.8333 8.08333 25.1667 7.91667 25.75 8L28.25 6H28.75L29.25 5.5H29.75L30.25 5H30.75L31.25 4.5H31.75L33.25 3.5H34.25L35.75 2.5H36.75L37.25 2C38.0833 2.16667 38.5833 2 38.75 1.5H40.75L41.25 1H43.25L43.75 0.5H46.75L47.25 0Z" fill="#FF7733"/>
<path d="M152.25 5.5H154.75L155.25 6H155.75C155.833 6.41667 156.167 6.58333 156.75 6.5L157.5 7.25V7.75L158.5 9.25V12.25L158 12.75V13.75L157.5 14.25V15.25L157 15.75V16.75L156.5 17.25V18.25L156 18.75V19.75C155.5 19.9167 155.333 20.4167 155.5 21.25L155 21.75C155.083 22.3333 154.917 22.6667 154.5 22.75V23.75L153.5 25.25V26.75L153 27.25V28.25L152.5 28.75V29.75L152 30.25V31.25L151.5 31.75V32.75L151 33.25V34.25L150.5 34.75V35.75C150 35.9167 149.833 36.4167 150 37.25L149.5 37.75V39.25L149 39.75V41.25L148.5 41.75V42.75L148 43.25C148.167 44.0833 148 44.5833 147.5 44.75V46.25C147 46.4167 146.833 46.9167 147 47.75L147.25 48L152.75 42.5H153.25L155.75 40.5H156.25L157.75 39.5H158.75L159.25 39H161.25L161.75 38.5H165.25L165.75 39H167.25L167.75 39.5H168.75C168.833 39.9167 169.167 40.0833 169.75 40L171.25 41.5H171.75L173.5 43.25V43.75L175.5 46.25V47.25L176 47.75C175.917 48.3333 176.083 48.6667 176.5 48.75V49.75L177 50.25V52.75L177.5 53.25V59.75L177 60.25V62.25C176.417 62.5 176.25 63.1667 176.5 64.25L176.75 64.5L177.25 64H177.75L178.75 63H179.25L184.5 57.75V57.25L185.5 56.25V55.75L186 55.25V54.75L186.5 54.25V53.75C186.917 53.6667 187.083 53.3333 187 52.75L188 51.75V51.25L189 50.25V49.75L190.5 48.25V47.75L196.75 41.5H197.25L198.25 40.5H198.75L199.25 40H199.75L200.25 39.5H200.75L202.25 38.5C203.333 38.75 204 38.5833 204.25 38H211.25L211.75 38.5H213.25C213.417 39 213.917 39.1667 214.75 39L215.75 40H216.25C216.333 40.4167 216.667 40.5833 217.25 40.5L221 44.25V44.75L222 45.75V46.25L223 47.75V48.75L223.5 49.25C223.333 50.0833 223.5 50.5833 224 50.75V52.75L224.5 53.25V60.5H225.25L225.75 60H226.25L226.75 59.5H227.25C227.333 59.0833 227.667 58.9167 228.25 59L229.75 57.5H230.25L231.25 56.5H231.75L234.5 53.75V53.25L235.5 52.25C235.417 51.6667 235.583 51.3333 236 51.25V40.75C236.417 40.6667 236.583 40.3333 236.5 39.75L238.25 38C238.833 38.0833 239.167 37.9167 239.25 37.5H242.75C242.833 37.9167 243.167 38.0833 243.75 38L245.5 39.75V40.25L246.5 41.75V49.25L246 49.75V52.25C245.583 52.3333 245.417 52.6667 245.5 53.25L245.75 53.5L246.5 52.75V52.25L247.5 51.25V50.75C247.917 50.6667 248.083 50.3333 248 49.75L249.5 48.25V47.75L251.5 45.75V45.25L253.75 43H254.25L255.75 41.5H256.25L258.75 39.5H259.75L260.25 39C261.083 39.1667 261.583 39 261.75 38.5H266.25L266.75 39H267.25C267.333 39.4167 267.667 39.5833 268.25 39.5L269.5 40.75V41.25L270.5 42.75V45.25L270 45.75V46.25C269.583 46.3333 269.417 46.6667 269.5 47.25L268.25 48.5H267.75L266.25 49.5H264.25C264 50.0833 263.333 50.25 262.25 50L261.75 50.5H261.25L260.75 51H260.25C260.167 51.4167 259.833 51.5833 259.25 51.5L258.25 52.5H257.75L254 56.25V56.75L252.5 58.25V58.75L251.5 59.75V60.25C251.083 60.3333 250.917 60.6667 251 61.25L250 62.25V62.75L249 64.25V64.75L248.5 65.25V66.25L248 66.75V67.25L247.5 67.75V68.25L246.5 69.75V71.25L246 71.75V72.75L245.5 73.25V74.25L245 74.75C245.167 75.5833 245 76.0833 244.5 76.25V77.75L244 78.25C244.167 79.0833 244 79.5833 243.5 79.75V81.25L243 81.75V83.25L242.5 83.75V84.75C242 84.9167 241.833 85.4167 242 86.25L241.5 86.75V87.25C241.083 87.3333 240.917 87.6667 241 88.25L239.75 89.5H239.25L237.75 90.5H235.25C235.083 90 234.583 89.8333 233.75 90L232 88.25V87.75L231 86.25V82.25L231.5 81.75V78.75L232 78.25V75.75L232.5 75.25V72.25L233 71.75V69.75L233.5 69.25V67.25L234 66.75V64.75C234.5 64.5833 234.667 64.0833 234.5 63.25L234.25 63L232.25 65H231.75L230.75 66H230.25C230.167 66.4167 229.833 66.5833 229.25 66.5L228.25 67.5H227.25L225.75 68.5H224.75C224.667 68.9167 224.333 69.0833 223.75 69L223 69.75V70.75L222.5 71.25V72.25C222 72.4167 221.833 72.9167 222 73.75L221.5 74.25V74.75L221 75.25V75.75C220.583 75.8333 220.417 76.1667 220.5 76.75L219.5 77.75V78.25C219.083 78.3333 218.917 78.6667 219 79.25L218 80.25V80.75L216.5 82.25V82.75L212.75 86.5H212.25L210.75 88H210.25L209.25 89H208.75L208.25 89.5H207.75L207.25 90H206.75L205.25 91H203.75L203.25 91.5H201.25C201.167 91.9167 200.833 92.0833 200.25 92C200.167 91.5833 199.833 91.4167 199.25 91.5L198.75 92C198.417 91.3333 198.083 91.3333 197.75 92C197.167 92.0833 196.833 91.9167 196.75 91.5H195.25L194.75 91H193.75L193.25 90.5H192.25L191.75 90H191.25C191.167 89.5833 190.833 89.4167 190.25 89.5L189.25 88.5H188.75L186 85.75V85.25L185 84.25V83.75L184 82.25V81.25L183.5 80.75C183.667 79.9167 183.5 79.4167 183 79.25V77.75L182.5 77.25V69.75L182.25 69.5L181.25 70.5H180.75L179.75 71.5H179.25L176.75 73.5H176.25L175.75 74H175.25L174.75 74.5H174.25C174.167 74.9167 173.833 75.0833 173.25 75L172 76.25V76.75C171.583 76.8333 171.417 77.1667 171.5 77.75L170.5 78.75V79.25L169 80.75V81.25L162.25 88H161.75L159.25 90H158.75L158.25 90.5H157.75L156.25 91.5H155.25L154.75 92C153.917 91.8333 153.417 92 153.25 92.5H149.75C149.667 92.9167 149.333 93.0833 148.75 93L148.25 92.5H146.25C146.083 92 145.583 91.8333 144.75 92L144.25 91.5H143.75C143.667 91.0833 143.333 90.9167 142.75 91L141.75 90H141.25L139.75 88.5H139C139 88.6667 139 89.0833 139 89.75L138 90.75V91.25L137.25 92C136.667 91.9167 136.333 92.0833 136.25 92.5H135.25L134.75 93H133.75C133.583 92.5 133.083 92.3333 132.25 92.5L130.5 90.75C130.583 90.1667 130.417 89.8333 130 89.75V85.75L129.75 85.5L125.75 89.5H125.25L124.25 90.5H123.75L122.75 91.5C122.167 91.4167 121.833 91.5833 121.75 92C120.917 91.8333 120.417 92 120.25 92.5H114.75L114.25 92H113.25L112.25 91H111.75L108.5 87.75V87.25L108 86.75V86.25L107 84.75V83.75L106.5 83.25C106.667 82.5833 106.583 82.1667 106.25 82L104.5 83.75V84.25L98.75 90H98.25L95.75 92H95.25L93.75 93H92.75C92.5833 93.5 92.0833 93.6667 91.25 93.5L90.75 94H85.25L84.75 93.5H83.75L83.25 93H82.25C82.1667 92.5833 81.8333 92.4167 81.25 92.5L78.75 90H78V89.25L76.5 87.75V87.25L75.5 86.25V85.25C75 85.0833 74.8333 84.5833 75 83.75L74 82.25V79.75L73.5 79.25V72.25L74 71.75V69.25L74.5 68.75V67.25L75 66.75V65.25C75.5 65.0833 75.6667 64.5833 75.5 63.75L76.5 62.25V61.25L77 60.75V60.25L77.5 59.75V59.25L78 58.75V58.25L78.5 57.75V57.25C78.9167 57.1667 79.0833 56.8333 79 56.25L80 55.25V54.75L81 53.75V53.25L83 51.25V50.75L88.75 45H89.25L90.75 43.5H91.25L91.75 43H92.25L92.75 42.5H93.25L94.75 41.5H95.75L96.25 41C97.0833 41.1667 97.5833 41 97.75 40.5H99.25L99.75 40H103.75L104.25 40.5H106.25L106.75 41H107.25L107.75 41.5H108.25C108.333 41.9167 108.667 42.0833 109.25 42L110.75 43.5H111.25L112.25 44.5L113 43.75V43.25L115.25 41C115.833 41.0833 116.167 40.9167 116.25 40.5H119.25L120.75 41.5H121.5V42.25L122.5 43.75V46.25L122 46.75V48.75L121.5 49.25V50.75L121 51.25C121.167 52.0833 121 52.5833 120.5 52.75V54.25C119.917 54.5 119.75 55.1667 120 56.25L119.5 56.75C119.667 57.5833 119.5 58.0833 119 58.25V60.25L118.5 60.75C118.75 61.8333 118.583 62.5 118 62.75V64.75L117.5 65.25V67.75L117 68.25V71.75L116.5 72.25V78.25L117 78.75V79.75C117.417 79.8333 117.583 80.1667 117.5 80.75L118.75 82H119.25C119.333 82.4167 119.667 82.5833 120.25 82.5L120.75 82H121.75L122.75 81H123.25L127 77.25V76.75L128.5 75.25V74.75L130 73.25V72.75L131 71.75C130.917 71.1667 131.083 70.8333 131.5 70.75V68.75L132 68.25V65.75L132.5 65.25V62.75L133 62.25V60.25L133.5 59.75C133.25 58.6667 133.417 58 134 57.75V55.75L134.5 55.25V53.25L135 52.75C134.75 51.6667 134.917 51 135.5 50.75V48.75L136 48.25V46.75C136.583 46.5 136.75 45.8333 136.5 44.75L137 44.25C136.833 43.4167 137 42.9167 137.5 42.75V41.25L138 40.75V39.25L138.5 38.75C138.25 37.6667 138.417 37 139 36.75V34.75L139.5 34.25V33.25L140 32.75V31.75L140.5 31.25C140.333 30.4167 140.5 29.9167 141 29.75V28.25L141.5 27.75V26.75L142 26.25C141.833 25.4167 142 24.9167 142.5 24.75V23.25L143.5 21.75V20.75C144 20.5833 144.167 20.0833 144 19.25L145 17.75V16.75L145.5 16.25V15.25L146 14.75V13.75C146.5 13.5833 146.667 13.0833 146.5 12.25L147 11.75V11.25L147.5 10.75V10.25C147.917 10.1667 148.083 9.83333 148 9.25L149 8.25V7.75L150.25 6.5H150.75L152.25 5.5ZM208 47C207.667 47.3333 207.333 47.5 207 47.5L205 49.5C205 49.8333 204.833 50.1667 204.5 50.5V51.5L204 52V54C204.667 54 204.833 54.5 204.5 55.5L205.5 57V57.5L206.5 58.5V59L208 60H208.5L209.5 61C209.833 61 210.167 61.1667 210.5 61.5C211.167 61.5 211.667 61.6667 212 62H214V61.5L214.5 61V53.5L214 53V52L213 50.5V50L211 47.5C210.333 47.5 210 47.3333 210 47H208ZM147 48C146.667 48.3333 146.667 48.5 147 48.5C147.333 48.5 147.333 48.3333 147 48ZM161 48.5C160.667 49.1667 160.167 49.3333 159.5 49L158.5 50H158L156 52H155.5L154.5 53V53.5L152.5 55.5V56L151 57.5C151 57.8333 150.833 58.1667 150.5 58.5V59L149.5 60C149.5 60.3333 149.333 60.6667 149 61V61.5L148.5 62V62.5L147.5 63.5V64.5L146.5 66V66.5L146 67V67.5L145.5 68V68.5L145 69V69.5L144.5 70V71L143.5 72.5V73.5L142.5 75C142.833 75.6667 142.667 76.1667 142 76.5V78L141.5 78.5V80.5L144 82.5C144.333 82.5 144.667 82.6667 145 83H146L146.5 83.5H149.5L150 83H151L152.5 82H153L153.5 81.5H154L154.5 81H155L159.5 76.5V76L160.5 75V74.5L161.5 73.5V73L162.5 72C162.5 71.3333 162.667 71 163 71V70L164 68.5V68L164.5 67.5C164.5 66.5 164.667 66 165 66V65L165.5 64.5C165.167 63.1667 165.333 62.5 166 62.5V60L166.5 59.5V54.5L166 54V52C165.667 51.6667 165.5 51.3333 165.5 51L164 49C163.333 49 163 48.8333 163 48.5H161ZM101 50L100.5 50.5H99.5C99.1667 50.8333 98.8333 51 98.5 51L97.5 52H97L92 57V57.5L91 58.5V59L90 60C90 60.3333 89.8333 60.6667 89.5 61V61.5L88.5 62.5C88.5 62.8333 88.3333 63.1667 88 63.5V64L87.5 64.5V65.5L86.5 67V68L86 68.5C86.3333 69.5 86.1667 70.1667 85.5 70.5V72.5L85 73V78.5C85.6667 78.5 85.8333 79.1667 85.5 80.5L86.5 81.5V82L88 83C88.3333 83 88.6667 83.1667 89 83.5H91C91 83.1667 91.5 83 92.5 83C92.5 82.6667 92.8333 82.5 93.5 82.5L95 81H95.5L97 79.5V79L99.5 76.5V76L100.5 75C100.5 74.3333 100.667 74 101 74V73.5L102 72.5C102 71.8333 102.167 71.5 102.5 71.5V71L103 70.5V70L103.5 69.5V69L104 68.5V68L104.5 67.5V67L105 66.5V66L105.5 65.5V64.5L106.5 63C106.5 62 106.667 61.5 107 61.5V60.5L107.5 60V58.5L108 58V56.5L108.5 56V53.5C108.167 53.1667 108 52.8333 108 52.5L107 51C106.333 51 106 50.8333 106 50.5H105.5L105 50H101ZM196.5 59C196.167 59 196 59.3333 196 60L195.5 60.5V61L195 61.5V62.5L194.5 63C194.833 64 194.667 64.6667 194 65V66.5L193.5 67V71.5L193 72V74L193.5 74.5V77L194 77.5V78.5C194.333 78.5 194.5 78.8333 194.5 79.5L197 81.5C197.333 81.5 197.667 81.6667 198 82H199.5L200 82.5C200.333 82.5 200.667 82.3333 201 82H202.5L203 81.5H204C204 81.1667 204.333 81 205 81L208.5 77.5V77L210 75.5C210 74.8333 210.167 74.5 210.5 74.5V74L211 73.5V73L211.5 72.5V72L212 71.5V70.5L211.5 69.5H209L208.5 69H207.5C207.167 68.6667 206.833 68.5 206.5 68.5L206 68H205L203.5 67H203L201.5 65.5H201L199 64V63.5L198 62.5C198 61.8333 197.833 61.5 197.5 61.5V61L197 60.5V60L196.5 59Z" fill="#FF7733"/>
<path d="M284.75 16.5H287.25C287.417 17 287.917 17.1667 288.75 17C288.833 17.4167 289.167 17.5833 289.75 17.5L292 19.75V20.25L293 21.75V25.25L292.5 25.75V26.25C292.083 26.3333 291.917 26.6667 292 27.25L291 28.25V28.75L290.25 29.5H289.75L288.75 30.5C288.167 30.4167 287.833 30.5833 287.75 31H283.25C283.167 30.5833 282.833 30.4167 282.25 30.5L281.25 29.5H280.5V28.75L279.5 27.75C279.583 27.1667 279.417 26.8333 279 26.75C279.167 25.9167 279 25.4167 278.5 25.25V23.25L279 22.75V21.25C279.417 21.1667 279.583 20.8333 279.5 20.25L282.25 17.5C282.833 17.5833 283.167 17.4167 283.25 17H284.25L284.75 16.5Z" fill="#FF7733"/>
<path d="M331.75 38H333.25C333.417 38.5 333.917 38.6667 334.75 38.5C334.833 38.9167 335.167 39.0833 335.75 39L336.5 39.75V40.25L337.5 41.75V44.75L337 45.25V45.75C336.583 45.8333 336.417 46.1667 336.5 46.75L335.5 47.75V48.5H334.5V49.25L330 53.75V54.25L324 60.25V60.75L319 65.75V66.25L314 71.25V71.75L309.5 76.25V76.75L308.5 77.75V78.5H309.25L309.75 78H313.75L314.25 78.5H316.75L317.25 79C318.333 78.75 319 78.9167 319.25 79.5H322.25C322.5 80.0833 323.167 80.25 324.25 80L324.75 79.5H326.75C326.917 79 327.417 78.8333 328.25 79L328.75 78.5H329.25L329.75 78H330.25C330.333 77.5833 330.667 77.4167 331.25 77.5L332.25 76.5H332.75L333.75 75.5H334.25L337.25 72.5H338V71.75L339 70.75C338.917 70.1667 339.083 69.8333 339.5 69.75V66.75L340 66.25V64.25L340.5 63.75V62.75C341 62.5833 341.167 62.0833 341 61.25L341.5 60.75V60.25L342.5 58.75V57.75L343 57.25V56.75L343.5 56.25V55.75L344 55.25V54.75C344.417 54.6667 344.583 54.3333 344.5 53.75L345.5 52.75V52.25L346.5 51.25V50.75L348 49.25V48.75L353.75 43H354.25L355.75 41.5H356.25C356.333 41.0833 356.667 40.9167 357.25 41L358.25 40H358.75L360.25 39C361.083 39.1667 361.583 39 361.75 38.5H363.75L364.25 38H368.75C369 38.5833 369.667 38.75 370.75 38.5L371.25 39H371.75L372.25 39.5H372.75L373.25 40H373.75C373.833 40.4167 374.167 40.5833 374.75 40.5L377.25 43L378 42.25V41.75L380.25 39.5C380.833 39.5833 381.167 39.4167 381.25 39H384.25C384.333 39.4167 384.667 39.5833 385.25 39.5L387 41.25C386.833 42.0833 387 42.5833 387.5 42.75V44.25L387 44.75V46.25C386.417 46.5 386.25 47.1667 386.5 48.25L386 48.75V49.75L385.5 50.25C385.667 51.0833 385.5 51.5833 385 51.75V53.25L384.5 53.75V55.25L384 55.75V57.25L383.5 57.75C383.75 58.8333 383.583 59.5 383 59.75V61.75L382.5 62.25V64.25L382 64.75V67.75L381.5 68.25V77.25L382 77.75V78.75C382.417 78.8333 382.583 79.1667 382.5 79.75L383.75 81H384.75C384.833 81.4167 385.167 81.5833 385.75 81.5L386.25 81H387.25L387.75 80.5H388.25C388.333 80.0833 388.667 79.9167 389.25 80L390.25 79H390.75L397.5 72.25V71.75L398.5 70.75V70.25L400 68.75V68.25L402 65.75V65.25C402.417 65.1667 402.583 64.8333 402.5 64.25L403.5 63.25V62.75C403.917 62.6667 404.083 62.3333 404 61.75L406.75 59H410.25L411.25 60H412V60.75L413 62.25V64.25L412.5 64.75V65.25L412 65.75V66.25L411.5 66.75V67.25L411 67.75V68.25L410.5 68.75V69.25C410.083 69.3333 409.917 69.6667 410 70.25L409 71.25V71.75L408 72.75V73.25L407 74.25V74.75L404.5 77.25V77.75L397.25 85H396.75L394.75 87H394.25L393.25 88H392.75L392.25 88.5H391.75L391.25 89H390.75L389.25 90H388.25L387.75 90.5C386.917 90.3333 386.417 90.5 386.25 91H380.25L379.75 90.5H378.75C378.667 90.0833 378.333 89.9167 377.75 90L376.75 89H376.25L374 86.75V86.25L372.5 84.75C372.583 84.1667 372.417 83.8333 372 83.75C372.167 82.9167 372 82.4167 371.5 82.25V80.75L371 80.25C371.083 79.8333 371 79.5833 370.75 79.5L370 80.25V80.75L362.75 88H362.25C362.167 88.4167 361.833 88.5833 361.25 88.5L360.25 89.5C359.667 89.4167 359.333 89.5833 359.25 90H358.25L356.75 91C355.667 90.75 355 90.9167 354.75 91.5H351.25C351 90.9167 350.333 90.75 349.25 91L348.75 90.5H348.25L347.75 90H347.25L346.75 89.5H346.25C346.167 89.0833 345.833 88.9167 345.25 89L342.5 86.25V85.75L341.5 84.75C341.583 84.1667 341.417 83.8333 341 83.75V82.75L340.5 82.25V81.5H339.75L336.75 84.5H336.25L334.75 86H334.25C334.167 86.4167 333.833 86.5833 333.25 86.5L332.25 87.5H331.75L330.25 88.5H329.25L328.75 89C327.917 88.8333 327.417 89 327.25 89.5H325.25L324.75 90H321.75L321.25 89.5H318.75L318.25 89H316.75L316.25 88.5C315.167 88.75 314.5 88.5833 314.25 88H312.25L311.75 87.5H304.75L304.25 88H302.75C302.583 88.5 302.083 88.6667 301.25 88.5L300.75 89H300.25L299.75 89.5H299.25L297.75 90.5H294.25C294.167 90.0833 293.833 89.9167 293.25 90L292.5 89.25V88.75L291.5 87.25V85.25L292 84.75L291.75 84.5H291.25L288.75 87H288.25L287.25 88H286.75C286.667 88.4167 286.333 88.5833 285.75 88.5L284.75 89.5H283.75L282.25 90.5C281.167 90.25 280.5 90.4167 280.25 91H277.75L277.25 90.5H276.25L275.75 90H275.25C275.167 89.5833 274.833 89.4167 274.25 89.5L271 86.25V85.75L270.5 85.25V84.75L269.5 83.25C269.75 82.1667 269.583 81.5 269 81.25V70.25L269.5 69.75V67.25L270 66.75V64.75L270.5 64.25V62.25L271 61.75C270.75 60.6667 270.917 60 271.5 59.75V57.75L272 57.25V55.75C272.583 55.5 272.75 54.8333 272.5 53.75L273 53.25C272.833 52.4167 273 51.9167 273.5 51.75V50.25L274 49.75C273.833 48.9167 274 48.4167 274.5 48.25V46.75L275.5 45.25V44.25L276 43.75V43.25L276.5 42.75V42.25C276.917 42.1667 277.083 41.8333 277 41.25L278.25 40H278.75L280.25 39H283.25C283.333 39.4167 283.667 39.5833 284.25 39.5L285.5 40.75C285.417 41.3333 285.583 41.6667 286 41.75V42.75L286.5 43.25V45.25L286 45.75V47.25L285.5 47.75V48.75L285 49.25C285.167 50.0833 285 50.5833 284.5 50.75V52.25L284 52.75V54.25L283.5 54.75V56.25L283 56.75C283.167 57.5833 283 58.0833 282.5 58.25V60.25L282 60.75C282.25 61.8333 282.083 62.5 281.5 62.75V64.75L281 65.25V67.25L280.5 67.75V70.75L280 71.25V78.75C280.417 78.8333 280.583 79.1667 280.5 79.75L281.25 80.5H283.75L284.25 80H284.75C284.833 79.5833 285.167 79.4167 285.75 79.5L287.25 78H287.75L290.25 75.5H290.75L293.75 72.5H295.75L297 73.75V75.25L297.25 75.5L300 72.75V72.25L306 66.25V65.75L311.5 60.25V59.75L318 53.25V52.75L321 49.75L320.75 49.5H302.25L301.75 49H300.25C300.167 48.5833 299.833 48.4167 299.25 48.5L297.5 46.75C297.667 45.9167 297.5 45.4167 297 45.25V43.75L297.5 43.25V42.25C297.917 42.1667 298.083 41.8333 298 41.25L299.75 39.5H300.25L301.75 38.5H306.75L307.25 39H312.25L312.75 39.5H324.75L325.25 39H327.75L328.25 38.5H331.25L331.75 38ZM367 47.5C366.667 48.1667 366.167 48.3333 365.5 48L365 48.5H364L363 49.5H362.5L361 51H360.5L358 53.5V54L356.5 55.5V56L355.5 57C355.5 57.3333 355.333 57.6667 355 58V58.5L354 59.5C354 59.8333 353.833 60.1667 353.5 60.5V61.5L352.5 63V64L352 64.5V65.5L351.5 66C351.833 67 351.667 67.6667 351 68V69.5L350.5 70V77.5L351.5 79V79.5L353 80.5C353.333 80.5 353.667 80.6667 354 81H356C356 80.6667 356.5 80.5 357.5 80.5L358.5 79.5H359L360.5 78H361L362.5 76.5V76L364 74.5V74L365.5 72.5C365.5 71.8333 365.667 71.5 366 71.5V71L366.5 70.5V70L367.5 69C367.5 68.3333 367.667 68 368 68V67.5L368.5 67V66.5L369 66V65.5L369.5 65V64.5L370 64V63L371 61.5C371 60.5 371.167 60 371.5 60V59L372 58.5V57.5L372.5 57V56L373 55.5V54L373.5 53.5V52C373.167 51.6667 373 51.3333 373 51L371 48.5C370 48.8333 369.5 48.6667 369.5 48H368.5L368 47.5H367Z" fill="#FF7733"/>
<path d="M316.75 99C317.333 98.9167 317.667 99.0833 317.75 99.5H318.75L319.5 100.25C319.417 100.833 319.583 101.167 320 101.25V102.75L319.5 103.25V103.75C319.083 103.833 318.917 104.167 319 104.75L318.25 105.5H317.75L315.75 107.5H315.25L314.25 108.5H313.75L312.25 110H311.75L310.25 111.5H309.75L308.25 113H307.75L305.75 115H305.25L303.75 116.5H303.25L301.75 118H301.25L299.25 120H298.75L296.75 122H296.25L294.75 123.5H294.25L293.25 124.5C292.667 124.417 292.333 124.583 292.25 125H290.75C290.667 125.417 290.333 125.583 289.75 125.5C289.667 125.083 289.333 124.917 288.75 125L286.5 122.75V122.25L285.5 121.25V120.75C285.083 120.667 284.917 120.333 285 119.75L284 118.75V118.25L283.5 117.75V117.25L283 116.75V116.25C282.583 116.167 282.417 115.833 282.5 115.25L281 113.75V113.25L280.25 112.5H279.25L278.75 112C277.917 112.167 277.417 112 277.25 111.5H274.25L273.75 111H269.75L269.25 110.5H262.25L261.75 110H234.25L233.75 110.5H223.75L223.25 111H217.75L217.25 111.5H211.25L210.75 112H206.75L206.25 112.5H201.25L200.75 113H196.75L196.25 113.5H193.25L192.75 114H189.25L188.75 114.5H185.75L185.25 115H182.75L182.25 115.5H179.75L179.25 116H176.75L176.25 116.5H173.75L173.25 117H170.75L170.25 117.5H168.25L167.75 118H165.75L165.25 118.5H163.25L162.75 119H160.75L160.25 119.5H158.25L157.75 120H155.75L155.25 120.5H153.25L152.75 121C151.667 120.75 151 120.917 150.75 121.5H148.75L148.25 122H146.75L146.25 122.5C145.167 122.25 144.5 122.417 144.25 123H142.25C142 123.583 141.333 123.75 140.25 123.5L139.75 124C138.917 123.833 138.417 124 138.25 124.5H136.75L136.25 125C135.417 124.833 134.917 125 134.75 125.5H133.25C133 126.083 132.333 126.25 131.25 126L130.75 126.5C129.917 126.333 129.417 126.5 129.25 127H127.75L127.25 127.5C126.417 127.333 125.917 127.5 125.75 128H124.25L123.75 128.5H122.75L122.25 129C121.417 128.833 120.917 129 120.75 129.5H119.25L118.75 130H117.75L117.25 130.5H116.25L115.75 131H114.75L114.25 131.5H113.25C113.083 132 112.583 132.167 111.75 132L110.25 133H109.25L108.75 133.5H107.75L107.25 134C106.417 133.833 105.917 134 105.75 134.5H103.75L103.25 135C103 134.417 102.333 134.25 101.25 134.5L100.25 133.5H99.5V132.75L98.5 131.75V128.25L99.5 127.25V126.5H100.25L101.25 125.5H101.75L103.25 124.5H104.25L104.75 124H105.25L106.75 123H107.75L108.25 122.5H109.25L109.75 122H110.75L111.25 121.5H112.25L112.75 121H113.75L114.25 120.5H115.25L115.75 120H116.75L117.25 119.5C118.083 119.667 118.583 119.5 118.75 119H120.25L120.75 118.5H121.75L122.25 118C123.083 118.167 123.583 118 123.75 117.5H125.25L125.75 117C126.583 117.167 127.083 117 127.25 116.5H128.75L129.25 116H130.75L131.25 115.5H132.75L133.25 115C134.083 115.167 134.583 115 134.75 114.5H136.75L137.25 114H138.75L139.25 113.5H140.75L141.25 113C142.333 113.25 143 113.083 143.25 112.5H145.25L145.75 112H147.75L148.25 111.5C149.333 111.75 150 111.583 150.25 111H152.25L152.75 110.5C153.833 110.75 154.5 110.583 154.75 110H157.25L157.75 109.5H160.25L160.75 109H163.25L163.75 108.5H165.75L166.25 108H168.75L169.25 107.5H171.75L172.25 107H174.75L175.25 106.5H177.75L178.25 106H181.25L181.75 105.5H185.75L186.25 105H189.25L189.75 104.5H193.25L193.75 104H198.25L198.75 103.5H202.75L203.25 103H208.25L208.75 102.5H215.25L215.75 102H223.75L224.25 101.5H256.25L256.75 102H264.25L264.75 102.5H269.25L269.75 103H273.25L273.75 103.5H275.75L276.25 104H278.25L278.75 104.5H280.75L281.25 105H282.25L282.75 105.5H283.75L284.25 106H285.25C285.333 106.417 285.667 106.583 286.25 106.5L289.5 109.75V110.25L290 110.75V111.25L290.5 111.75V112.25L291.5 113.75V114.5H292.25L293.25 113.5H293.75L294.75 112.5H295.25L296.25 111.5H296.75L297.75 110.5H298.25L299.25 109.5H299.75L301.25 108H301.75L304.25 106H304.75C304.833 105.583 305.167 105.417 305.75 105.5L307.25 104H307.75C307.833 103.583 308.167 103.417 308.75 103.5L309.75 102.5H310.25C310.333 102.083 310.667 101.917 311.25 102L312.25 101H312.75L313.25 100.5H313.75L315.25 99.5H316.25L316.75 99Z" fill="#FF7733"/>
</g>
</g>
<defs>
<clipPath id="clip0_9_1298">
<rect width="413" height="135" fill="white"/>
</clipPath>
</defs>
</svg>
